<?xml version="1.0" standalone="no"?>
<!DOCTYPE svg PUBLIC "-//W3C//DTD SVG 20010904//EN"
 "http://www.w3.org/TR/2001/REC-SVG-20010904/DTD/svg10.dtd">
<svg version="1.0" xmlns="http://www.w3.org/2000/svg"
 width="370.000000pt" height="370.000000pt" viewBox="0 0 370.000000 370.000000"
 preserveAspectRatio="xMidYMid meet">
<metadata>
Created by potrace 1.11, written by Peter Selinger 2001-2013
</metadata>
<g transform="translate(0.000000,370.000000) scale(0.100000,-0.100000)"
fill="#000000" stroke="none">
<path d="M574 2748 c-26 -12 -41 -44 -38 -78 4 -39 123 -552 136 -583 24 -61
95 -84 158 -52 33 17 47 50 111 267 24 82 46 145 50 140 3 -4 30 -88 60 -187
62 -209 78 -235 151 -235 45 0 81 18 97 48 15 28 141 580 141 617 0 68 -97 99
-141 46 -9 -11 -32 -102 -54 -213 -21 -106 -41 -199 -45 -206 -4 -7 -30 64
-59 160 -85 283 -85 283 -153 283 -62 0 -75 -25 -142 -253 -33 -111 -63 -199
-66 -195 -4 5 -24 93 -44 197 -21 103 -42 199 -48 211 -18 39 -71 55 -114 33z"/>
<path d="M2344 2750 c-108 -22 -193 -91 -240 -193 -26 -56 -29 -72 -29 -172 0
-99 3 -115 27 -165 40 -81 79 -122 150 -161 60 -32 68 -34 163 -34 89 0 105 3
151 27 75 40 130 107 155 190 25 82 23 173 -5 193 -24 18 -87 25 -185 21 -73
-2 -86 -6 -103 -25 -23 -30 -23 -63 1 -92 15 -19 30 -24 86 -27 l67 -4 -6 -29
c-14 -70 -80 -119 -161 -119 -112 0 -188 89 -188 218 -1 117 44 196 130 228
39 15 53 16 101 6 31 -6 72 -23 93 -36 60 -40 84 -42 115 -11 51 51 9 123 -97
163 -64 24 -168 34 -225 22z"/>
<path d="M1572 2554 c-138 -69 -191 -248 -117 -399 32 -67 84 -108 164 -131
167 -49 392 75 301 166 -26 26 -50 25 -108 -4 -65 -32 -106 -40 -147 -26 -32
11 -75 51 -75 71 0 5 71 9 158 9 192 0 202 4 202 83 0 70 -35 142 -93 193 -80
70 -191 85 -285 38z m193 -124 c25 -24 48 -74 38 -84 -4 -3 -57 -6 -120 -6
-95 0 -113 2 -113 15 0 28 30 74 58 90 37 21 107 14 137 -15z"/>
<path d="M2979 2565 c-110 -35 -184 -144 -183 -270 0 -119 52 -205 149 -251
127 -60 281 -3 338 125 24 56 33 152 18 208 -39 143 -188 231 -322 188z m141
-153 c69 -70 57 -207 -21 -248 -80 -41 -159 28 -159 138 0 114 109 180 180
110z"/>
<path d="M2229 1713 c-13 -16 -12 -17 4 -4 9 7 17 15 17 17 0 8 -8 3 -21 -13z"/>
<path d="M1512 1532 c-51 -19 -104 -59 -123 -94 -18 -34 -27 -109 -17 -147 18
-66 68 -103 183 -136 83 -23 105 -39 105 -75 0 -59 -65 -74 -181 -40 -60 17
-93 8 -109 -30 -16 -39 -2 -73 41 -99 42 -25 147 -43 206 -35 53 7 129 42 155
71 45 49 62 146 39 216 -19 55 -61 86 -173 126 -93 33 -103 39 -106 63 -4 37
27 52 87 43 25 -4 66 -8 91 -9 40 -1 46 2 58 27 21 43 4 78 -48 104 -65 32
-143 38 -208 15z"/>
<path d="M2307 1540 c-87 -15 -171 -81 -217 -169 -45 -89 -43 -228 5 -327 89
-181 343 -226 488 -86 156 150 125 441 -57 547 -34 19 -143 48 -165 44 -3 -1
-27 -5 -54 -9z m116 -144 c87 -36 129 -156 95 -269 -32 -107 -157 -149 -239
-80 -106 89 -85 297 36 349 39 17 68 17 108 0z"/>
<path d="M585 1515 c-14 -13 -25 -33 -25 -44 0 -36 209 -555 231 -573 28 -24
72 -23 93 1 24 26 226 537 226 571 0 33 -38 70 -71 70 -48 0 -64 -24 -129
-202 -35 -95 -67 -177 -70 -181 -4 -5 -36 70 -71 165 -36 97 -73 183 -86 196
-29 29 -68 28 -98 -3z"/>
<path d="M1181 1514 c-20 -26 -21 -39 -21 -310 0 -271 1 -285 20 -304 30 -30
83 -27 109 6 20 26 21 39 21 304 0 265 -1 278 -21 304 -15 19 -30 26 -54 26
-24 0 -39 -7 -54 -26z"/>
<path d="M1880 1520 c-19 -19 -20 -33 -20 -310 0 -277 1 -291 20 -310 30 -30
83 -27 109 6 20 26 21 39 21 306 l0 279 -25 24 c-30 31 -77 33 -105 5z"/>
<path d="M2762 1517 c-22 -23 -22 -29 -22 -308 0 -285 0 -286 23 -307 30 -28
78 -29 103 -1 17 18 20 42 24 191 l5 169 130 -171 c71 -95 140 -181 154 -191
33 -26 67 -24 97 6 l25 25 -3 286 -3 286 -24 19 c-28 22 -69 25 -97 5 -17 -13
-19 -31 -24 -194 l-5 -179 -120 160 c-66 88 -134 175 -151 194 -38 40 -80 44
-112 10z"/>
</g>
</svg>
